<mxfile host="app.diagrams.net" modified="2024-07-15T02:54:29.591Z" agent="Mozilla/5.0 (Windows NT 10.0; Win64; x64) AppleWebKit/537.36 (KHTML, like Gecko) Chrome/126.0.0.0 Safari/537.36" etag="_LcRHhIpyKxqmDuER4uH" version="24.6.5" type="github">
  <diagram name="Page-1" id="1zUs9bpFPjPOduPwFeYQ">
    <mxGraphModel dx="1235" dy="701" grid="1" gridSize="10" guides="1" tooltips="1" connect="1" arrows="1" fold="1" page="1" pageScale="1" pageWidth="850" pageHeight="1100" math="0" shadow="0">
      <root>
        <mxCell id="0" />
        <mxCell id="1" parent="0" />
        <mxCell id="XEem56mKLc4ZJ5a7cTvM-7" value="" style="edgeStyle=orthogonalEdgeStyle;rounded=0;orthogonalLoop=1;jettySize=auto;html=1;entryX=0.5;entryY=1;entryDx=0;entryDy=0;" edge="1" parent="1" source="dFzj-gyimligzPjvBaNj-1" target="dFzj-gyimligzPjvBaNj-3">
          <mxGeometry relative="1" as="geometry">
            <mxPoint x="425" y="425" as="targetPoint" />
          </mxGeometry>
        </mxCell>
        <mxCell id="dFzj-gyimligzPjvBaNj-1" value="INPUT" style="rounded=1;whiteSpace=wrap;html=1;absoluteArcSize=1;arcSize=14;strokeWidth=2;" parent="1" vertex="1">
          <mxGeometry x="365" y="500" width="120" height="50" as="geometry" />
        </mxCell>
        <mxCell id="XEem56mKLc4ZJ5a7cTvM-5" value="" style="edgeStyle=orthogonalEdgeStyle;rounded=0;orthogonalLoop=1;jettySize=auto;html=1;entryX=0.5;entryY=1;entryDx=0;entryDy=0;entryPerimeter=0;" edge="1" parent="1" source="dFzj-gyimligzPjvBaNj-3" target="dFzj-gyimligzPjvBaNj-9">
          <mxGeometry relative="1" as="geometry">
            <mxPoint x="305" y="315" as="targetPoint" />
          </mxGeometry>
        </mxCell>
        <mxCell id="dFzj-gyimligzPjvBaNj-3" value="STOCK IN" style="rounded=1;whiteSpace=wrap;html=1;absoluteArcSize=1;arcSize=14;strokeWidth=2;" parent="1" vertex="1">
          <mxGeometry x="245" y="390" width="120" height="50" as="geometry" />
        </mxCell>
        <mxCell id="XEem56mKLc4ZJ5a7cTvM-12" value="" style="edgeStyle=orthogonalEdgeStyle;rounded=0;orthogonalLoop=1;jettySize=auto;html=1;entryX=0.5;entryY=1;entryDx=0;entryDy=0;entryPerimeter=0;" edge="1" parent="1" source="dFzj-gyimligzPjvBaNj-4" target="dFzj-gyimligzPjvBaNj-11">
          <mxGeometry relative="1" as="geometry">
            <mxPoint x="545" y="315" as="targetPoint" />
          </mxGeometry>
        </mxCell>
        <mxCell id="dFzj-gyimligzPjvBaNj-4" value="STOCK OUT" style="rounded=1;whiteSpace=wrap;html=1;absoluteArcSize=1;arcSize=14;strokeWidth=2;" parent="1" vertex="1">
          <mxGeometry x="485" y="390" width="120" height="50" as="geometry" />
        </mxCell>
        <mxCell id="dFzj-gyimligzPjvBaNj-8" value="dbo.Inventory" style="strokeWidth=2;html=1;shape=mxgraph.flowchart.database;whiteSpace=wrap;" parent="1" vertex="1">
          <mxGeometry x="378" y="150" width="95" height="110" as="geometry" />
        </mxCell>
        <mxCell id="dFzj-gyimligzPjvBaNj-9" value="dbo.Stock_in" style="strokeWidth=2;html=1;shape=mxgraph.flowchart.database;whiteSpace=wrap;" parent="1" vertex="1">
          <mxGeometry x="150" y="150" width="95" height="110" as="geometry" />
        </mxCell>
        <mxCell id="dFzj-gyimligzPjvBaNj-11" value="dbo.Stock_out" style="strokeWidth=2;html=1;shape=mxgraph.flowchart.database;whiteSpace=wrap;" parent="1" vertex="1">
          <mxGeometry x="605" y="150" width="95" height="110" as="geometry" />
        </mxCell>
        <mxCell id="XEem56mKLc4ZJ5a7cTvM-9" value="" style="edgeStyle=orthogonalEdgeStyle;rounded=0;orthogonalLoop=1;jettySize=auto;html=1;entryX=0.5;entryY=1;entryDx=0;entryDy=0;" edge="1" parent="1" target="dFzj-gyimligzPjvBaNj-4">
          <mxGeometry relative="1" as="geometry">
            <mxPoint x="420" y="470" as="sourcePoint" />
            <mxPoint x="540" y="440" as="targetPoint" />
          </mxGeometry>
        </mxCell>
        <mxCell id="XEem56mKLc4ZJ5a7cTvM-13" value="" style="edgeStyle=orthogonalEdgeStyle;rounded=0;orthogonalLoop=1;jettySize=auto;html=1;entryX=0.5;entryY=1;entryDx=0;entryDy=0;entryPerimeter=0;exitX=0.5;exitY=0;exitDx=0;exitDy=0;" edge="1" parent="1" source="dFzj-gyimligzPjvBaNj-4" target="dFzj-gyimligzPjvBaNj-8">
          <mxGeometry relative="1" as="geometry">
            <mxPoint x="520" y="340" as="sourcePoint" />
            <mxPoint x="568" y="220" as="targetPoint" />
          </mxGeometry>
        </mxCell>
        <mxCell id="XEem56mKLc4ZJ5a7cTvM-14" value="USER" style="shape=umlActor;verticalLabelPosition=bottom;verticalAlign=top;html=1;outlineConnect=0;" vertex="1" parent="1">
          <mxGeometry x="410" y="560" width="30" height="60" as="geometry" />
        </mxCell>
        <mxCell id="XEem56mKLc4ZJ5a7cTvM-15" value="" style="edgeStyle=orthogonalEdgeStyle;rounded=0;orthogonalLoop=1;jettySize=auto;html=1;entryX=0.5;entryY=1;entryDx=0;entryDy=0;entryPerimeter=0;exitX=0.5;exitY=0;exitDx=0;exitDy=0;" edge="1" parent="1" source="dFzj-gyimligzPjvBaNj-3" target="dFzj-gyimligzPjvBaNj-8">
          <mxGeometry relative="1" as="geometry">
            <mxPoint x="378" y="340" as="sourcePoint" />
            <mxPoint x="271" y="210" as="targetPoint" />
          </mxGeometry>
        </mxCell>
        <mxCell id="XEem56mKLc4ZJ5a7cTvM-19" value="OUTPUT" style="rounded=1;whiteSpace=wrap;html=1;absoluteArcSize=1;arcSize=14;strokeWidth=2;" vertex="1" parent="1">
          <mxGeometry x="365.5" y="50" width="120" height="50" as="geometry" />
        </mxCell>
        <mxCell id="XEem56mKLc4ZJ5a7cTvM-20" value="" style="edgeStyle=orthogonalEdgeStyle;rounded=0;orthogonalLoop=1;jettySize=auto;html=1;entryX=0.5;entryY=1;entryDx=0;entryDy=0;exitX=0.5;exitY=0;exitDx=0;exitDy=0;exitPerimeter=0;" edge="1" parent="1" source="dFzj-gyimligzPjvBaNj-8" target="XEem56mKLc4ZJ5a7cTvM-19">
          <mxGeometry relative="1" as="geometry">
            <mxPoint x="484.5" y="190" as="sourcePoint" />
            <mxPoint x="605.5" y="60" as="targetPoint" />
          </mxGeometry>
        </mxCell>
      </root>
    </mxGraphModel>
  </diagram>
</mxfile>
